<svg xmlns="http://www.w3.org/2000/svg" viewBox="0 0 64 64" role="img" aria-label="EdenAir">
  <title>EdenAir</title>
  <defs>
    <linearGradient id="mbg" x1="0" y1="0" x2="0.25" y2="1"><stop offset="0" stop-color="#48946F"/><stop offset="1" stop-color="#163829"/></linearGradient>
    <radialGradient id="mglow" cx="50%" cy="42%" r="60%"><stop offset="0" stop-color="#8FD6C8" stop-opacity=".55"/><stop offset="1" stop-color="#8FD6C8" stop-opacity="0"/></radialGradient>
    <linearGradient id="me" x1="0.08" y1="0.1" x2="0.92" y2="0.92"><stop offset="0" stop-color="#ECF2E8"/><stop offset="0.55" stop-color="#A9CDB6"/><stop offset="1" stop-color="#8FD6C8"/></linearGradient>
  </defs>
  <rect x="2" y="2" width="60" height="60" rx="16" fill="url(#mbg)"/>
  <circle cx="32" cy="30" r="22" fill="url(#mglow)"/>
  <rect x="2.6" y="2.6" width="58.8" height="58.8" rx="15.4" fill="none" stroke="#ffffff" stroke-opacity=".18" stroke-width="1.1"/>
  <g transform="translate(32 33) scale(0.42) translate(-59.5 -50)">
    <path d="M15 39 C21 30 30 33 36 41 C45 51 60 51 80 52 C86 36 70 24 52 24 C34 24 22 38 24 52 C26 68 42 78 60 76 C76 74 90 70 104 60" fill="none" stroke="url(#me)" stroke-width="10" stroke-linecap="round" stroke-linejoin="round"/>
  </g>
</svg>
