<svg xmlns="http://www.w3.org/2000/svg" viewBox="0 0 64 64" role="img" aria-label="EdenAir">
  <title>EdenAir</title>
  <defs>
    <linearGradient id="mp" x1="0" y1="0" x2="1" y2="1"><stop offset="0" stop-color="#FFFFFF"/><stop offset="1" stop-color="#DCF1EA"/></linearGradient>
    <linearGradient id="macc" x1="0" y1="0" x2="1" y2="1"><stop offset="0" stop-color="#DDEE93"/><stop offset="1" stop-color="#C9D870"/></linearGradient>
    <linearGradient id="mbg" x1="0" y1="0" x2="0.25" y2="1"><stop offset="0" stop-color="#48946F"/><stop offset="1" stop-color="#163829"/></linearGradient>
    <radialGradient id="mglow" cx="50%" cy="42%" r="60%"><stop offset="0" stop-color="#8FD6C8" stop-opacity=".55"/><stop offset="1" stop-color="#8FD6C8" stop-opacity="0"/></radialGradient>
  </defs>
  <rect x="2" y="2" width="60" height="60" rx="16" fill="url(#mbg)"/>
  <circle cx="32" cy="30" r="22" fill="url(#mglow)"/>
  <rect x="2.6" y="2.6" width="58.8" height="58.8" rx="15.4" fill="none" stroke="#ffffff" stroke-opacity=".18" stroke-width="1.1"/>
  <g transform="translate(32 33) scale(0.62) translate(-32 -32)">
    <g fill="none" stroke="url(#mp)" stroke-width="5.2" stroke-linecap="round">
      <path d="M13 20 H39 a5.5 5.5 0 1 0 -5 -5.4"/>
      <path d="M13 32 H47 a6 6 0 1 1 -6 6"/>
      <path d="M13 44 H33 a5 5 0 1 0 -4.4 5"/>
    </g>
    <circle cx="50" cy="20" r="3.6" fill="url(#macc)"/>
  </g>
</svg>
